<mxfile host="app.diagrams.net" modified="2023-05-31T14:09:24.221Z" agent="Mozilla/5.0 (Windows NT 10.0; Win64; x64) AppleWebKit/537.36 (KHTML, like Gecko) Chrome/113.0.0.0 Safari/537.36" version="21.3.5" etag="a2mbelP9oeel5SCtuGEp" type="github">
  <diagram name="Page-1" id="pT8G5rh-ICe9oJNkY86X">
    <mxGraphModel>
      <root>
        <mxCell id="0" />
        <mxCell id="1" parent="0" />
      </root>
    </mxGraphModel>
  </diagram>
</mxfile>
